<svg id="Layer_1" data-name="Layer 1" xmlns="http://www.w3.org/2000/svg" viewBox="0 0 266.05 64.93"><defs><style>.cls-1{fill:#c7d4df;}.cls-2{fill:#fff;}.cls-3{fill:#35627a;}.cls-4{fill:#77787b;}.cls-5{fill:#77797b;}</style></defs><title>logo</title><polyline class="cls-1" points="11.03 36.45 11.03 58.88 254.98 58.88 254.98 36.45 11.03 36.45"/><polyline class="cls-2" points="11.03 0.12 11.03 34.53 254.98 34.53 254.98 0.12 11.03 0.12"/><path class="cls-3" d="M180.9,20.81a3.9,3.9,0,0,0,1.23-2.88,3.82,3.82,0,0,0-1.36-3A5.52,5.52,0,0,0,177,13.66h-8.48v.73c1.05,0,1.71.18,2,.53a4.46,4.46,0,0,1,.42,2.43v7.8a4.51,4.51,0,0,1-.42,2.43c-.28.35-.94.53-2,.53v.73h8v-.73c-1,0-1.71-.18-2-.53a4.39,4.39,0,0,1-.43-2.43v-3h.73l4.51,6.66h5.49v-.73a4.69,4.69,0,0,1-2.1-.79,15.93,15.93,0,0,1-2.63-2.45l-2.46-2.69a5.05,5.05,0,0,0,3.25-1.37Zm-6.79.24V14.79h1.39a3.27,3.27,0,0,1,2.46.92,3.17,3.17,0,0,1,.78,2.22,3.08,3.08,0,0,1-.78,2.2,3.27,3.27,0,0,1-2.46.92Zm22.15-7.39H191.2v.73c1,0,1.71.18,2,.53a4.46,4.46,0,0,1,.42,2.43v7.8a4.51,4.51,0,0,1-.42,2.43c-.27.35-.94.53-2,.53v.73h6v-.73c-1,0-1.71-.18-2-.53a4.39,4.39,0,0,1-.43-2.43V16.77l10.48,12.5h.63V17.35a4.45,4.45,0,0,1,.42-2.44c.28-.35.95-.52,2-.52v-.73h-6v.73c1.05,0,1.72.18,2,.53a4.34,4.34,0,0,1,.43,2.43v6.38l-8.45-10.07ZM229.7,28.84l.21-3.57h-.74l-.12.51a2.93,2.93,0,0,1-.71,1.47,4,4,0,0,1-2.23.45h-2.28a2.66,2.66,0,0,1-2-.53,4.43,4.43,0,0,1-.43-2.43V21.37h1.39a4.39,4.39,0,0,1,2.42.42c.35.28.52.95.52,2h.73v-6h-.73c0,1-.17,1.71-.52,2a4.37,4.37,0,0,1-2.42.43H221.4V14.79h3.87a3.94,3.94,0,0,1,2.23.46,2.85,2.85,0,0,1,.71,1.47l.13.5h.73l-.2-3.56h-13v.73c1,0,1.71.18,2,.53a4.46,4.46,0,0,1,.42,2.43v7.8a4.51,4.51,0,0,1-.42,2.43c-.28.35-.94.53-2,.53v.73Z"/><path class="cls-2" d="M158.87,15.58a8.73,8.73,0,0,0-11.92,0,7.72,7.72,0,0,0,0,11.34,8.73,8.73,0,0,0,11.92,0,7.72,7.72,0,0,0,0-11.34m-2.1,10.23a4.45,4.45,0,0,1-7.72,0,8.47,8.47,0,0,1-1.19-4.56,8.45,8.45,0,0,1,1.19-4.56,4.44,4.44,0,0,1,7.72,0,8.63,8.63,0,0,1,1.16,4.56,8.63,8.63,0,0,1-1.16,4.56"/><path class="cls-3" d="M50.57,23h-.74a7,7,0,0,1-1.92,3.74,4.73,4.73,0,0,1-3.32,1.33,3.74,3.74,0,0,1-3.52-2.23,10,10,0,0,1-.93-4.58,9.92,9.92,0,0,1,.93-4.58,3.73,3.73,0,0,1,3.52-2.23,4.71,4.71,0,0,1,3.33,1.32,6.85,6.85,0,0,1,1.91,3.74h.74V13.93h-.71a2.9,2.9,0,0,1-.66,1.45,6.26,6.26,0,0,0-4.71-2.15A7.36,7.36,0,0,0,39,15.58a7.86,7.86,0,0,0-2.28,5.67A7.86,7.86,0,0,0,39,26.92a7.36,7.36,0,0,0,5.49,2.35,6.41,6.41,0,0,0,4.71-2.15,2.88,2.88,0,0,1,.66,1.44h.71V23Zm10.37,2.16a4.51,4.51,0,0,1-.42,2.43c-.28.35-.94.53-2,.53v.73H73l.2-3.57h-.73l-.13.51a2.85,2.85,0,0,1-.71,1.47,4,4,0,0,1-2.23.45H66.53a2.66,2.66,0,0,1-2-.53,4.43,4.43,0,0,1-.43-2.43V17.35a4.43,4.43,0,0,1,.43-2.43,2.66,2.66,0,0,1,2-.53v-.73h-8v.73c1,0,1.71.18,2,.53a4.46,4.46,0,0,1,.42,2.43v7.8Zm26.11-1.37,1.07,2.4a2.69,2.69,0,0,1,.28,1c0,.62-.73.94-2.18.94v.73h8.3v-.73a3.28,3.28,0,0,1-2-.51,5.09,5.09,0,0,1-1-1.72L85.92,13.23h-.54L79.89,25.88a4.31,4.31,0,0,1-1.19,1.78,3.23,3.23,0,0,1-1.92.45v.73H82.9v-.73c-1.43,0-2.15-.33-2.15-1a2.53,2.53,0,0,1,.26-.94l1-2.4Zm-4.5-1.14,2-4.63,2,4.63Zm32.85-9h-6.12v.73c1.25,0,1.87.25,1.87.76a2.45,2.45,0,0,1-.5,1.16l-2.84,4.28L105,16.31a2,2,0,0,1-.46-1.09c0-.55.6-.83,1.8-.83v-.73H97.74v.73a4,4,0,0,1,2.06.44,6,6,0,0,1,1.61,1.79l3.67,5.54v3a4.48,4.48,0,0,1-.43,2.43,2.66,2.66,0,0,1-2,.53v.73h7.89v-.73c-1,0-1.7-.18-2-.53a4.51,4.51,0,0,1-.42-2.43V22.08l3.62-5.46a6.49,6.49,0,0,1,1.44-1.72,3.87,3.87,0,0,1,2.2-.51v-.73Zm14.72,14a2.75,2.75,0,0,1-2-.5,4,4,0,0,1-.43-2.31V21.37h2.25a3,3,0,0,1,3.22,3.17,3.1,3.1,0,0,1-.79,2.23,3.14,3.14,0,0,1-2.43.93Zm-1-12.91a2.65,2.65,0,0,1,2.07.79,2.76,2.76,0,0,1,.71,2,2.54,2.54,0,0,1-2.78,2.71h-1.42V14.79Zm6.17,2.66A3.44,3.44,0,0,0,134,14.74a4.88,4.88,0,0,0-3.3-1.08h-8.61v.73c1,0,1.71.18,2,.53a4.46,4.46,0,0,1,.42,2.43v7.8a4.51,4.51,0,0,1-.42,2.43c-.28.35-.94.53-2,.53v.73h9.32a5.52,5.52,0,0,0,3.74-1.24,3.83,3.83,0,0,0,1.37-3,3.91,3.91,0,0,0-.84-2.47,4.43,4.43,0,0,0-2.3-1.53,3.44,3.44,0,0,0,1.87-3.14Z"/><polyline class="cls-4" points="0 36.97 266.05 36.97 266.05 36.35 0 36.35 0 36.97"/><polyline class="cls-4" points="0 35.14 266.05 35.14 266.05 34.53 0 34.53 0 35.14"/><polyline class="cls-4" points="11.37 64.93 255.09 64.93 255.09 60.67 11.37 60.67"/><polygon class="cls-4" points="11.27 0.3 10.97 0.3 10.97 58.88 255.08 58.88 255.08 0 10.97 0 10.97 0.3 11.27 0.3 11.27 0.61 254.47 0.61 254.47 58.27 11.58 58.27 11.58 0.3 11.27 0.3 11.27 0.61 11.27 0.3 11.27 0.3"/><path class="cls-3" d="M159.12,24.48h.63a7,7,0,1,1-14.08,0V16.92a7,7,0,1,1,14.08,0v7.56h-1.27V16.92a5.78,5.78,0,1,0-11.55,0v7.56a5.78,5.78,0,0,0,11.55,0h.64"/><path class="cls-5" d="M36.57,46.15V44.38h6.48v1.77h-.43c-.25-1.09-.48-1.31-1.38-1.31h-.72v4.63c0,.79.18,1,.8,1h.22v.43h-3.5V50.5h.22c.62,0,.8-.24.8-1V44.84h-.69c-1,0-1.19.21-1.39,1.31Z"/><path class="cls-5" d="M53.27,48.82l-.08,2.11H47.4V50.5h.12c.61,0,.82-.25.81-1V45.81c0-.76-.2-1-.78-1h-.1v-.42h5.27l.11,1.68h-.44c-.27-1-.59-1.26-1.5-1.23H49.78v2.43h.64c.66,0,.8-.15.82-.8v-.07h.44v2.23h-.44v-.08c0-.66-.16-.81-.8-.82h-.66v1.6c0,.92.19,1.18,1,1.15H51c1,0,1.47-.42,1.81-1.65Z"/><path class="cls-5" d="M58,48.64h.46a3.41,3.41,0,0,0,.41,1.09,1.68,1.68,0,0,0,1.42.84,1,1,0,0,0,1.1-1c0-.49-.36-.85-1.21-1.24a5.25,5.25,0,0,1-1.69-1A1.78,1.78,0,0,1,58,46.1a1.85,1.85,0,0,1,1.92-1.84,2,2,0,0,1,1.44.61.89.89,0,0,0,.19-.49H62v1.86h-.42c-.24-1-.83-1.52-1.56-1.52a.85.85,0,0,0-.93.84c0,.5.33.81,1.31,1.25a4.69,4.69,0,0,1,1.62.93,1.88,1.88,0,0,1,.54,1.34,2,2,0,0,1-2.13,2,2.33,2.33,0,0,1-1.77-.79,1.83,1.83,0,0,0-.2.56H58Z"/><path class="cls-5" d="M66.68,46.15V44.38h6.48v1.77h-.43c-.24-1.09-.48-1.31-1.37-1.31h-.73v4.63c0,.79.19,1,.81,1h.21v.43H68.18V50.5h.21c.62,0,.81-.24.81-1V44.84h-.7c-1,0-1.19.21-1.38,1.31Z"/><path class="cls-5" d="M83.86,44.37l.88,0,1.76,0a3.59,3.59,0,0,1,2,.37,1.59,1.59,0,0,1,.84,1.46,1.69,1.69,0,0,1-1,1.59,3.9,3.9,0,0,1-1.58.23h-.77v1.51c0,.78.18,1,.8,1h.17v.43H83.56V50.5h.13c.62,0,.8-.24.8-1V45.81c0-.81-.17-1-.82-1h-.14v-.43Zm2.45,3.13a1.79,1.79,0,0,0,.9-.16,1.28,1.28,0,0,0,.53-1.16A1.34,1.34,0,0,0,87.18,45a1.89,1.89,0,0,0-1-.18h-.25V47.5Z"/><path class="cls-5" d="M98.64,50.93a7.8,7.8,0,0,1-1.1-1.55c-.83-1.41-.89-1.46-1.63-1.42h0v1.51c0,.79.17,1,.79,1h.19v.43h-3.4V50.5h.16c.63,0,.8-.24.8-1V45.81c0-.81-.16-1-.81-1h-.13v-.43l1.4,0,.35,0h.53a7,7,0,0,1,2.59.32,1.53,1.53,0,0,1,1,1.43c0,.81-.49,1.34-1.51,1.62.34.22.54.45,1.23,1.47s1,1.3,1.52,1.33h.06v.43ZM96,47.48h.06a2.32,2.32,0,0,0,1.18-.19,1.25,1.25,0,0,0,.51-1.16,1.46,1.46,0,0,0-.18-.77c-.22-.4-.58-.54-1.39-.54h-.32v2.65Z"/><path class="cls-5" d="M110.58,48.82l-.08,2.11h-5.79V50.5h.12c.61,0,.82-.25.81-1V45.81c0-.76-.2-1-.78-1h-.1v-.42H110l.11,1.68h-.43c-.28-1-.6-1.26-1.51-1.23h-1.11v2.43h.64c.66,0,.8-.15.82-.8v-.07H109v2.23h-.44v-.08c0-.66-.16-.81-.8-.82h-.66v1.6c0,.92.19,1.18,1,1.15h.27c1,0,1.47-.42,1.81-1.65Z"/><path class="cls-5" d="M115.21,44.37l.88,0,1.76,0a3.55,3.55,0,0,1,2,.37,1.58,1.58,0,0,1,.85,1.46,1.69,1.69,0,0,1-1,1.59,3.9,3.9,0,0,1-1.58.23h-.77v1.51c0,.78.18,1,.8,1h.17v.43h-3.35V50.5H115c.62,0,.8-.24.8-1V45.81c0-.81-.17-1-.82-1h-.14v-.43Zm2.44,3.13a1.81,1.81,0,0,0,.91-.16,1.28,1.28,0,0,0,.53-1.16,1.34,1.34,0,0,0-.56-1.21,1.89,1.89,0,0,0-1-.18h-.25V47.5Z"/><path class="cls-5" d="M135.49,49a2.94,2.94,0,0,0,.54-1.17h0v0h0c0-.25-.19-.39-.54-.42v-.43h2v.43c-.49.11-.73.34-1.14,1.07a5.48,5.48,0,0,1-.58,1l.1.14c.42.57.73.8,1.08.8s.5-.18.59-.59H138a1.46,1.46,0,0,1-.23.77,1.49,1.49,0,0,1-1.2.56,2.12,2.12,0,0,1-1.58-.8,2.86,2.86,0,0,1-1.86.81,1.84,1.84,0,0,1-1.9-1.77c0-.76.45-1.34,1.54-2a2.56,2.56,0,0,1-.51-1.39,1.41,1.41,0,0,1,1.55-1.42c.85,0,1.44.47,1.44,1.15s-.41,1-1.16,1.43l.76,1Zm-1.3.3c-.55-.75-.71-1-1.17-1.59a1.28,1.28,0,0,0-.68,1,1.63,1.63,0,0,0,1.4,1.58,1.34,1.34,0,0,0,.9-.4l0-.05Zm.28-3.63a.69.69,0,0,0-.68-.73.57.57,0,0,0-.59.59,2.09,2.09,0,0,0,.56,1.16C134.26,46.36,134.47,46.07,134.47,45.68Z"/><path class="cls-5" d="M148.21,46.15V44.38h6.48v1.77h-.43c-.25-1.09-.48-1.31-1.38-1.31h-.72v4.63c0,.79.18,1,.8,1h.22v.43h-3.5V50.5h.22c.62,0,.8-.24.8-1V44.84H150c-1,0-1.18.21-1.38,1.31Z"/><path class="cls-5" d="M166.27,44.38v.43h-.07c-.59.07-.83.39-.81,1v2.31a3.28,3.28,0,0,1-.22,1.52,2.55,2.55,0,0,1-2.54,1.4,2.71,2.71,0,0,1-2.39-1.14,2.55,2.55,0,0,1-.31-1.3V45.81c0-.81-.17-1-.82-1H159v-.43h3.3v.43h-.11c-.65,0-.81.19-.82,1v2.42a2.89,2.89,0,0,0,.25,1.54,1.58,1.58,0,0,0,1.41.73,1.83,1.83,0,0,0,1.78-1.21c.07-.21.07-.21.08-1.17V45.91c0-.74-.27-1.08-.92-1.1h-.06v-.43Z"/><path class="cls-5" d="M170.57,46.15V44.38h6.48v1.77h-.43c-.25-1.09-.49-1.31-1.38-1.31h-.73v4.63c0,.79.19,1,.81,1h.21v.43h-3.49V50.5h.22c.61,0,.8-.24.8-1V44.84h-.7c-1,0-1.18.21-1.38,1.31Z"/><path class="cls-5" d="M188.55,47.67a3.63,3.63,0,1,1-6.17-2.52,3.88,3.88,0,0,1,2.61-.89A3.38,3.38,0,0,1,188.55,47.67Zm-5.25-1.85a4.71,4.71,0,0,0-.3,1.84,4.47,4.47,0,0,0,.3,1.84,1.78,1.78,0,0,0,3.26,0,4.6,4.6,0,0,0,.29-1.81,4.76,4.76,0,0,0-.29-1.87,1.78,1.78,0,0,0-3.26,0Z"/><path class="cls-5" d="M198.18,50.93a7.05,7.05,0,0,1-1.1-1.55c-.84-1.41-.89-1.46-1.63-1.42h-.06v1.51c0,.79.18,1,.8,1h.18v.43H193V50.5h.15c.63,0,.81-.24.81-1V45.81c0-.81-.17-1-.82-1H193v-.43l1.4,0,.34,0h.53a7,7,0,0,1,2.59.32,1.53,1.53,0,0,1,1,1.43c0,.81-.49,1.34-1.51,1.62.34.22.54.45,1.22,1.47s1,1.3,1.52,1.33h.06v.43Zm-2.64-3.45h.06a2.32,2.32,0,0,0,1.18-.19,1.25,1.25,0,0,0,.51-1.16,1.46,1.46,0,0,0-.18-.77c-.23-.4-.59-.54-1.4-.54h-.32v2.65Z"/><path class="cls-5" d="M204.24,44.38h3.3v.43h-.12c-.63,0-.79.19-.8,1v3.66c0,.79.18,1,.79,1h.13v.43h-3.3V50.5h.12c.62,0,.81-.24.81-1V45.81c0-.81-.17-1-.83-1h-.1Z"/><path class="cls-5" d="M217.6,51.05l-4.37-5.25v3.53a1.85,1.85,0,0,0,.06.69,1,1,0,0,0,.85.48h.11v.43h-2.46V50.5h.05a1,1,0,0,0,.82-.41c.06-.12.08-.23.08-.75V46c0-.89-.24-1.15-.9-1.14h-.05v-.43h2.12l3.68,4.38V45.85c0-.69-.24-1-.89-1h-.08v-.43H219v.43h-.08c-.64.12-.84.39-.81,1.08v5.16Z"/><path class="cls-5" d="M230.29,48v.44h-.08c-.53.06-.62.2-.61,1v1.15l-.21,0a5.6,5.6,0,0,0-1.25.2,5.45,5.45,0,0,1-1.59.26,3.24,3.24,0,0,1-3.32-3.32,3.69,3.69,0,0,1,1.14-2.65,3.21,3.21,0,0,1,2.21-.84,2.91,2.91,0,0,1,2.11.84,2.25,2.25,0,0,0,.19-.71h.42l0,2.27h-.42a2.1,2.1,0,0,0-2-1.86,1.73,1.73,0,0,0-1.65,1,5.2,5.2,0,0,0-.3,2,4,4,0,0,0,.36,2,1.66,1.66,0,0,0,1.51.81A1.43,1.43,0,0,0,228,50a1.41,1.41,0,0,0,.12-.66V49.1c0-.51-.18-.64-.73-.68h-.1V48Z"/></svg>