<svg id="Layer_1" data-name="Layer 1" xmlns="http://www.w3.org/2000/svg" viewBox="0 0 114 17.52"><defs><style>.cls-1{fill:#717479;}</style></defs><title>stars</title><polygon class="cls-1" points="9 0.4 11.13 6.94 18 6.94 12.44 10.98 14.56 17.52 9 13.48 3.44 17.52 5.56 10.98 0 6.94 6.88 6.94 9 0.4"/><polygon class="cls-1" points="33 0 35.13 6.54 42 6.54 36.44 10.58 38.56 17.12 33 13.08 27.44 17.12 29.56 10.58 24 6.54 30.88 6.54 33 0"/><polygon class="cls-1" points="57 0 59.13 6.54 66 6.54 60.44 10.58 62.56 17.12 57 13.08 51.44 17.12 53.56 10.58 48 6.54 54.88 6.54 57 0"/><polygon class="cls-1" points="81 0 83.13 6.54 90 6.54 84.44 10.58 86.56 17.12 81 13.08 75.44 17.12 77.56 10.58 72 6.54 78.88 6.54 81 0"/><polygon class="cls-1" points="105 0 107.13 6.54 114 6.54 108.44 10.58 110.56 17.12 105 13.08 99.44 17.12 101.56 10.58 96 6.54 102.88 6.54 105 0"/></svg>