<svg id="Layer_1" data-name="Layer 1" xmlns="http://www.w3.org/2000/svg" viewBox="0 0 176.94 176.94"><defs><style>.cls-1{fill:#e2e8f1;}.cls-2{fill:#6080c0;}.cls-3{fill:#f1f1f1;}.cls-4{fill:#63b3ac;}</style></defs><title>acceptance</title><circle class="cls-1" cx="88.47" cy="88.47" r="88.47"/><path class="cls-2" d="M58.1,5.35C10.21,23.89,0,65.88,0,88.47A88.47,88.47,0,1,0,88.47,0V88.47Z"/><circle class="cls-3" cx="88.47" cy="88.47" r="58.96"/><path class="cls-2" d="M88.47,144.68a56.21,56.21,0,1,1,56.21-56.21A56.27,56.27,0,0,1,88.47,144.68Zm0-110.58a54.37,54.37,0,1,0,54.37,54.37A54.42,54.42,0,0,0,88.47,34.1Z"/><path class="cls-2" d="M51.67,90.52,54.26,86a7.22,7.22,0,0,0,5.46,2.16c4.54,0,6.86-3.78,6.86-7.73v-.59a9.18,9.18,0,0,1-7.08,3.56c-5,0-9.4-3.08-9.4-9,0-5.35,4.27-9.46,10.54-9.46C69,65,72.47,71.45,72.47,79.23c0,8.27-4.64,14.16-12.81,14.16A11.78,11.78,0,0,1,51.67,90.52ZM66.58,75.77c-.27-2.65-1.73-5.62-5.62-5.62-3.13,0-4.86,2.16-4.86,4,0,2.87,2.54,4.11,5.08,4.11A7.06,7.06,0,0,0,66.58,75.77Z"/><path class="cls-2" d="M74.31,79.17c0-7.08,3.51-14.16,11.4-14.16s11.41,7.08,11.41,14.16S93.55,93.39,85.71,93.39,74.31,86.25,74.31,79.17Zm16.81,0c0-5.08-1.46-9-5.41-9s-5.45,3.89-5.45,9,1.45,9,5.45,9S91.12,84.25,91.12,79.17Z"/><path class="cls-2" d="M98.52,71.93a7,7,0,0,1,14,0c0,3.84-2.76,6.76-7,6.76A6.59,6.59,0,0,1,98.52,71.93Zm10.27,0c0-2.32-1.35-3.67-3.24-3.67s-3.24,1.35-3.24,3.67a3.26,3.26,0,1,0,6.48,0Zm-5.94,21,17.56-27.51h3.13L105.93,92.9Zm10.8-6.27a6.69,6.69,0,0,1,7-6.92,6.76,6.76,0,0,1,7,6.92,7,7,0,0,1-14,0Zm10.27,0c0-2.27-1.4-3.67-3.29-3.67s-3.25,1.4-3.25,3.67,1.35,3.57,3.25,3.57A3.25,3.25,0,0,0,123.92,86.63Z"/><path class="cls-4" d="M56.85,111.76,56.21,110H51.72l-.65,1.78H48.53l4-10.48H55.4l4.05,10.48ZM54,103.55,52.37,108h3.24Z"/><path class="cls-4" d="M59.34,106.52a5.29,5.29,0,0,1,5.57-5.4,4.77,4.77,0,0,1,4.37,2.54l-1.89.92a2.81,2.81,0,0,0-2.48-1.52,3.46,3.46,0,0,0,0,6.92,2.88,2.88,0,0,0,2.48-1.51l1.89.91a4.81,4.81,0,0,1-4.37,2.6A5.34,5.34,0,0,1,59.34,106.52Z"/><path class="cls-4" d="M70.15,106.52a5.29,5.29,0,0,1,5.57-5.4,4.77,4.77,0,0,1,4.37,2.54l-1.89.92a2.81,2.81,0,0,0-2.48-1.52,3.46,3.46,0,0,0,0,6.92,2.88,2.88,0,0,0,2.48-1.51l1.89.91a4.81,4.81,0,0,1-4.37,2.6A5.34,5.34,0,0,1,70.15,106.52Z"/><path class="cls-4" d="M81.44,111.76V101.28h7.41v1.94H83.66v2.22h5.08v2H83.66v2.37h5.19v1.95H81.44Z"/><path class="cls-4" d="M90.63,111.76V101.28h4.92a3.25,3.25,0,0,1,3.51,3.35,3.28,3.28,0,0,1-3.51,3.4H92.9v3.73Zm6.11-7.08a1.41,1.41,0,0,0-1.57-1.4H92.79v2.81h2.38A1.41,1.41,0,0,0,96.74,104.68Z"/><path class="cls-4" d="M102.85,111.76v-8.54H99.77v-1.94h8.37v1.94h-3v8.54Z"/><path class="cls-4" d="M109.55,111.76V101.28H117v1.94h-5.19v2.22h5.08v2h-5.08v2.37H117v1.95h-7.4Z"/><path class="cls-4" d="M118.73,111.76V101.28h4.11c3.3,0,5.57,2.11,5.57,5.24s-2.27,5.24-5.57,5.24Zm7.41-5.24a3.09,3.09,0,0,0-3.3-3.3H121v6.54h1.89A3.08,3.08,0,0,0,126.14,106.52Z"/></svg>