<svg id="Layer_1" data-name="Layer 1" xmlns="http://www.w3.org/2000/svg" viewBox="0 0 345.23 177.37"><defs><style>.cls-1{fill:#63b3ac;}.cls-2{fill:#6b6b6b;}.cls-3{fill:#6080c0;}.cls-4{fill:#328381;}.cls-5{fill:#4a4a4a;}.cls-6{fill:#fff;}.cls-7{fill:#486090;}</style></defs><title>college</title><polygon class="cls-1" points="226.34 29.78 226.34 177.21 118.79 177.21 118.79 29.78 119.49 29.51 172.67 0 226.34 29.78"/><polygon class="cls-2" points="345.23 29.78 345.23 177.21 237.69 177.21 237.69 29.78 238.39 29.51 291.57 0 345.23 29.78"/><polygon class="cls-3" points="107.55 29.94 107.55 177.37 0 177.37 0 29.94 0.7 29.67 53.88 0.16 107.55 29.94"/><path class="cls-4" d="M142.73,148.08c0-6.86,5.19-11.19,11.51-11.19a10.2,10.2,0,0,1,9,4.81l-3.83,2.06a6.13,6.13,0,0,0-5.14-2.81c-3.94,0-6.75,3-6.75,7.08a6.74,6.74,0,0,0,6.75,7.08,7.33,7.33,0,0,0,4.6-1.68v-2.59h-5.73v-4h10.32v8.32a12,12,0,0,1-9.19,4.11C147.92,159.27,142.73,154.89,142.73,148.08Z"/><path class="cls-4" d="M179.32,158.89l-4.27-7.67H171.7v7.67h-4.6V137.27h10.11c4.49,0,7.24,3,7.24,7a6.18,6.18,0,0,1-4.75,6.43l4.86,8.22Zm.43-14.7a2.93,2.93,0,0,0-3.24-2.92H171.7v5.84h4.81C178.4,147.11,179.75,146,179.75,144.19Z"/><path class="cls-4" d="M188,158.89V137.27h15.3v4h-10.7v4.6H203V150H192.56v4.92h10.7v4.05l-15.3-.05Z"/><path class="cls-5" d="M256.11,158.35V136.73h4.6V154.3h9.13v4Z"/><path class="cls-5" d="M271.62,155.27l2.49-3.51a9.56,9.56,0,0,0,6.86,2.91c2.54,0,3.79-1.19,3.79-2.37,0-3.84-12.43-1.19-12.43-9.35,0-3.62,3.13-6.6,8.21-6.6a11.93,11.93,0,0,1,8.43,3l-2.54,3.35a9.28,9.28,0,0,0-6.27-2.38c-2,0-3.08.87-3.08,2.16,0,3.46,12.43,1.14,12.43,9.19,0,4-2.81,6.92-8.64,6.92C276.6,158.73,273.62,157.32,271.62,155.27Z"/><path class="cls-5" d="M307.13,158.35l-1.35-3.68h-9.29l-1.36,3.68h-5.24l8.38-21.62h5.78l8.32,21.62Zm-6-17-3.35,9.3h6.76Z"/><path class="cls-5" d="M317.29,158.35V140.78H311v-4.05h17.24v4.05h-6.27v17.57Z"/><path class="cls-6" d="M27.62,92.58V82.47h4.7a3.13,3.13,0,0,1,3.4,3.24A3.17,3.17,0,0,1,32.32,89h-2.6v3.56l-2.1.06Zm5.94-6.87a1.34,1.34,0,0,0-1.46-1.35H29.83v2.7H32.1A1.33,1.33,0,0,0,33.56,85.71Z"/><path class="cls-6" d="M36.59,87.55a5.27,5.27,0,1,1,5.24,5.24A5.08,5.08,0,0,1,36.59,87.55Zm8.32,0a3.09,3.09,0,1,0-3.08,3.3A3,3,0,0,0,44.91,87.55Z"/><path class="cls-6" d="M48.64,92.58V82.47H50.8V92.58Z"/><path class="cls-6" d="M59.77,92.58,55,86v6.6H52.8V82.47H55l4.7,6.32V82.47h2.16V92.58Z"/><path class="cls-6" d="M66.15,92.58V84.36h-3V82.47h8.05v1.89H68.31v8.22Z"/><path class="cls-6" d="M71.88,91.12l1.19-1.62a4.38,4.38,0,0,0,3.19,1.35c1.18,0,1.73-.54,1.73-1.14,0-1.78-5.84-.54-5.84-4.37,0-1.68,1.46-3.09,3.84-3.09a5.67,5.67,0,0,1,3.94,1.41l-1.19,1.57a4.24,4.24,0,0,0-2.92-1.08c-.92,0-1.46.43-1.46,1,0,1.62,5.79.54,5.79,4.33,0,1.83-1.3,3.24-4.06,3.24A5.6,5.6,0,0,1,71.88,91.12Z"/><path class="cls-6" d="M146.51,92.58V82.47h4.71a3.13,3.13,0,0,1,3.4,3.24,3.17,3.17,0,0,1-3.4,3.25h-2.6v3.56l-2.11.06Zm6-6.87A1.34,1.34,0,0,0,151,84.36h-2.27v2.7H151A1.33,1.33,0,0,0,152.46,85.71Z"/><path class="cls-6" d="M155.48,87.55a5.27,5.27,0,1,1,5.25,5.24A5.08,5.08,0,0,1,155.48,87.55Zm8.33,0a3.09,3.09,0,1,0-3.08,3.3A3,3,0,0,0,163.81,87.55Z"/><path class="cls-6" d="M167.54,92.58V82.47h2.16V92.58Z"/><path class="cls-6" d="M178.67,92.58,173.86,86v6.6H171.7V82.47h2.21l4.71,6.32V82.47h2.16V92.58Z"/><path class="cls-6" d="M185.05,92.58V84.36h-3V82.47h8.06v1.89h-2.92v8.22Z"/><path class="cls-6" d="M190.78,91.12,192,89.5a4.41,4.41,0,0,0,3.19,1.35c1.19,0,1.73-.54,1.73-1.14,0-1.78-5.83-.54-5.83-4.37,0-1.68,1.45-3.09,3.83-3.09a5.7,5.7,0,0,1,4,1.41l-1.19,1.57a4.24,4.24,0,0,0-2.92-1.08c-.92,0-1.46.43-1.46,1,0,1.62,5.78.54,5.78,4.33,0,1.83-1.29,3.24-4,3.24A5.59,5.59,0,0,1,190.78,91.12Z"/><path class="cls-6" d="M265.41,92.58V82.47h4.7a3.14,3.14,0,0,1,3.41,3.24A3.17,3.17,0,0,1,270.11,89h-2.59v3.56l-2.11.06Zm5.94-6.87a1.33,1.33,0,0,0-1.45-1.35h-2.27v2.7h2.27A1.32,1.32,0,0,0,271.35,85.71Z"/><path class="cls-6" d="M274.38,87.55a5.27,5.27,0,1,1,5.24,5.24A5.08,5.08,0,0,1,274.38,87.55Zm8.32,0a3,3,0,0,0-3.08-3.3,3.08,3.08,0,0,0-3.08,3.3,3.09,3.09,0,1,0,6.16,0Z"/><path class="cls-6" d="M286.43,92.58V82.47h2.16V92.58Z"/><path class="cls-6" d="M297.57,92.58,292.76,86v6.6h-2.17V82.47h2.22l4.7,6.32V82.47h2.16V92.58Z"/><path class="cls-6" d="M303.94,92.58V84.36h-3V82.47h8v1.89h-2.91v8.22Z"/><path class="cls-6" d="M309.67,91.12l1.19-1.62a4.4,4.4,0,0,0,3.19,1.35c1.19,0,1.73-.54,1.73-1.14,0-1.78-5.84-.54-5.84-4.37,0-1.68,1.46-3.09,3.84-3.09a5.65,5.65,0,0,1,3.94,1.41l-1.18,1.57a4.28,4.28,0,0,0-2.92-1.08c-.92,0-1.46.43-1.46,1,0,1.62,5.78.54,5.78,4.33,0,1.83-1.3,3.24-4.05,3.24A5.63,5.63,0,0,1,309.67,91.12Z"/><path class="cls-7" d="M9.78,148.08c0-6.86,5.19-11.19,11.51-11.19a10.2,10.2,0,0,1,9,4.81l-3.83,2.06A6.13,6.13,0,0,0,21.29,141c-3.94,0-6.75,3-6.75,7.08a6.74,6.74,0,0,0,6.75,7.08,7.33,7.33,0,0,0,4.6-1.68v-2.59H20.16v-4H30.48v8.32a12,12,0,0,1-9.19,4.11C15,159.27,9.78,154.89,9.78,148.08Z"/><path class="cls-7" d="M53,158.89V143.76l-6.1,15.13h-2l-6.11-15.13v15.13H34.16V137.27h6.43l5.24,13.08,5.24-13.08h6.49v21.62Z"/><path class="cls-7" d="M76.8,158.89l-1.35-3.68h-9.3l-1.35,3.68H59.56l8.37-21.62h5.79L82,158.89Zm-6-17-3.35,9.29h6.76Z"/><path class="cls-7" d="M87,158.89V141.32H80.69v-4H97.93v4H91.66v17.57Z"/><path class="cls-6" d="M159.43,74.9V52.42l-5,5.24-3.62-3.94,9.4-9.78h5.57v31Z"/><path class="cls-6" d="M170.89,70.85l3.51-4.59a10.58,10.58,0,0,0,7.89,3.4c3.51,0,5.57-2.11,5.57-4.59,0-2.76-2-4.59-5.35-4.59A8.53,8.53,0,0,0,176.24,63l-4.43-1.19V44h20.48v5.78H178.18v7.57a9.14,9.14,0,0,1,6.6-2.59c5,0,9.56,3.78,9.56,10,0,6.59-4.75,10.75-11.94,10.75C177.21,75.5,173.43,73.72,170.89,70.85Z"/><path class="cls-6" d="M278,74.9V52.42l-5,5.24-3.62-3.94,9.4-9.78h5.57v31Z"/><path class="cls-6" d="M288.84,59.45c0-8,3.78-16,12.32-16s12.32,8,12.32,16-3.84,16-12.32,16S288.84,67.45,288.84,59.45Zm18.21,0c0-5.73-1.62-10.11-5.84-10.11s-5.89,4.43-5.89,10.11,1.62,10.16,5.89,10.16S307.05,65.18,307.05,59.45Z"/><path class="cls-6" d="M26.48,74.9V52.42l-5,5.24-3.62-3.94,9.4-9.78h5.57v31Z"/><path class="cls-6" d="M37.29,59.45c0-8,3.78-16,12.32-16s12.32,8,12.32,16-3.83,16-12.32,16S37.29,67.45,37.29,59.45Zm18.16,0c0-5.73-1.62-10.11-5.84-10.11s-5.89,4.43-5.89,10.11,1.62,10.16,5.89,10.16S55.45,65.18,55.45,59.45Z"/><path class="cls-6" d="M65,59.45c0-8,3.79-16,12.33-16s12.32,8,12.32,16-3.84,16-12.32,16S65,67.45,65,59.45Zm18.16,0c0-5.73-1.62-10.11-5.83-10.11s-5.89,4.43-5.89,10.11,1.62,10.16,5.89,10.16S83.17,65.18,83.17,59.45Z"/></svg>