<svg xmlns="http://www.w3.org/2000/svg" viewBox="0 0 32 32"><defs><style>.cls-1{fill:#393a3c;}</style></defs><title>icons</title><g id="google"><path class="cls-1" d="M27.28,22.91a11.34,11.34,0,0,1-4.45,4.53,13.16,13.16,0,0,1-6.62,1.64,12.69,12.69,0,0,1-6.54-1.77A13.3,13.3,0,0,1,4.9,22.54,12.64,12.64,0,0,1,3.13,16,12.64,12.64,0,0,1,4.9,9.46,13.3,13.3,0,0,1,9.67,4.69a12.69,12.69,0,0,1,6.54-1.77A12.28,12.28,0,0,1,25,6.35L21.43,9.78a7,7,0,0,0-4.06-1.95A8,8,0,0,0,13,8.46,8.07,8.07,0,0,0,8.09,16,8,8,0,0,0,9.2,20.14a8.67,8.67,0,0,0,3,3,7.65,7.65,0,0,0,4.06,1.13,8,8,0,0,0,4.17-1.06A7.2,7.2,0,0,0,22.75,21a7,7,0,0,0,.9-2.32H16.21V14.1H28.66a12.5,12.5,0,0,1,.21,2.22A13.5,13.5,0,0,1,27.28,22.91Z"/></g></svg>