<svg xmlns="http://www.w3.org/2000/svg" viewBox="0 0 32 32"><defs><style>.cls-1{fill:#393a3c;}</style></defs><title>icons</title><g id="twitter"><path class="cls-1" d="M26.65,11.25a15.49,15.49,0,0,1-1.83,7.26,14.87,14.87,0,0,1-5.27,5.89A15,15,0,0,1,11,26.86a15.17,15.17,0,0,1-8.4-2.46,12.63,12.63,0,0,0,1.3.06,10.91,10.91,0,0,0,6.84-2.35A5.11,5.11,0,0,1,7.57,21a5.43,5.43,0,0,1-1.9-2.69c.34,0,.67,0,1,0a6.66,6.66,0,0,0,1.46-.16A5.46,5.46,0,0,1,5,16.31a5.22,5.22,0,0,1-1.26-3.44v-.11a5.06,5.06,0,0,0,2.46.73,6.16,6.16,0,0,1-1.78-2,5.28,5.28,0,0,1,.11-5.37,15.16,15.16,0,0,0,5,4.07,15.25,15.25,0,0,0,6.29,1.67,7.64,7.64,0,0,1-.1-1.26,5.44,5.44,0,0,1,.73-2.74,5.37,5.37,0,0,1,4.69-2.74,5.26,5.26,0,0,1,2.22.47,6.15,6.15,0,0,1,1.8,1.26,11.19,11.19,0,0,0,3.5-1.31,5.46,5.46,0,0,1-2.4,3,11.89,11.89,0,0,0,3.13-.89,12.14,12.14,0,0,1-2.76,2.87A3.54,3.54,0,0,1,26.65,11.25Z"/></g></svg>