<svg xmlns="http://www.w3.org/2000/svg" viewBox="0 0 32 32"><defs><style>.cls-1{fill:#393a3c;}</style></defs><title>icons</title><g id="yelp"><path class="cls-1" d="M12.94,19.63Q7.3,21.48,7,21.48a1,1,0,0,1-.79-.58,2.8,2.8,0,0,1-.27-1.11,14.06,14.06,0,0,1,0-2.43,14.15,14.15,0,0,1,.32-1.58,1,1,0,0,1,1-.74q.21,0,4.49,1.74l1.42.58a1,1,0,0,1,.63.66,1.35,1.35,0,0,1,0,.95,1.08,1.08,0,0,1-.66.61Zm2.87-4.56a.85.85,0,0,1-1,.31,2.17,2.17,0,0,1-1.13-1.08L8,5.44a.94.94,0,0,1,.32-.89,7.5,7.5,0,0,1,3-1.32,7.89,7.89,0,0,1,3.35-.47,1,1,0,0,1,.74.63c0,.21.14,1.79.32,4.74l.36,5.44A2.16,2.16,0,0,1,15.81,15.07Zm.24,7.25c0,4.08,0,6.19-.05,6.33a1.14,1.14,0,0,1-.79.63,6.65,6.65,0,0,1-2.69-.58,7.93,7.93,0,0,1-1.85-.9c-.67-.42-.91-.87-.74-1.37q.11-.25,2.9-3.53L14,21.53a1,1,0,0,1,.82-.42,1.33,1.33,0,0,1,.9.34.92.92,0,0,1,.34.82Zm5.06-5.12-1.79.48.05-.05a1.11,1.11,0,0,1-.89-.19,1.2,1.2,0,0,1-.53-.76,1.06,1.06,0,0,1,.21-.9l1.05-1.42A38.37,38.37,0,0,1,22,10.72a.92.92,0,0,1,1-.05,5.85,5.85,0,0,1,1.79,1.95A6.62,6.62,0,0,1,26,15.09v.11a.94.94,0,0,1-.37.84A38.92,38.92,0,0,1,21.11,17.2Zm3.64,8.13a6.55,6.55,0,0,1-2,1.89.9.9,0,0,1-.95-.1,25.73,25.73,0,0,1-1.74-2.69l-1.69-2.74a.94.94,0,0,1-.11-.87,1.38,1.38,0,0,1,.58-.77,1,1,0,0,1,.9-.1l3,1a22.2,22.2,0,0,1,3.12,1.11,1,1,0,0,1,.31.89A6,6,0,0,1,24.75,25.33Z"/></g></svg>