<svg id="Layer_1" data-name="Layer 1" xmlns="http://www.w3.org/2000/svg" viewBox="0 0 228.61 177.21"><defs><style>.cls-1{fill:#63b3ac;}.cls-2{fill:#fff;}.cls-3{fill:#328381;}.cls-4{fill:#6080c0;}.cls-5{fill:#486090;}</style></defs><title>hs-results</title><polygon class="cls-1" points="228.61 29.78 228.61 177.21 121.06 177.21 121.06 29.78 121.76 29.51 174.94 0 228.61 29.78"/><path class="cls-2" d="M163.43,69.45l3.51-4.38a10.63,10.63,0,0,0,7.89,3.24c3.52,0,5.51-2,5.51-4.38,0-2.64-1.94-4.37-5.35-4.37a8.55,8.55,0,0,0-6.21,2.37L164.4,60.8v-17h20.38v5.56H170.72v7.24a9.51,9.51,0,0,1,6.54-2.48,9.29,9.29,0,0,1,9.52,9.62C186.78,70,182.07,74,174.89,74,169.7,73.88,166,72.2,163.43,69.45Z"/><path class="cls-2" d="M149.32,91.12V81.23H154a3.19,3.19,0,1,1,0,6.38h-2.54v3.51Zm5.79-6.7a1.37,1.37,0,0,0-1.46-1.35h-2.22v2.64h2.22A1.26,1.26,0,0,0,155.11,84.42Z"/><path class="cls-2" d="M158.08,86.2a5.19,5.19,0,1,1,5.19,5.13A5,5,0,0,1,158.08,86.2Zm8.21,0a3,3,0,0,0-3-3.24,3.25,3.25,0,0,0,0,6.48A3,3,0,0,0,166.29,86.2Z"/><path class="cls-2" d="M169.91,91.12V81.23H172v9.89Z"/><path class="cls-2" d="M180.78,91.12l-4.7-6.43v6.43H174V81.23h2.16l4.59,6.21V81.23h2.11v9.89Z"/><path class="cls-2" d="M187.05,91.12V83.07h-2.92V81.23H192v1.84h-2.87v8.05Z"/><path class="cls-2" d="M192.61,89.71l1.14-1.62a4.45,4.45,0,0,0,3.13,1.35c1.14,0,1.73-.54,1.73-1.08,0-1.73-5.67-.54-5.67-4.27,0-1.62,1.4-3,3.73-3a5.39,5.39,0,0,1,3.83,1.4L199.31,84A4.2,4.2,0,0,0,196.45,83c-.92,0-1.41.38-1.41,1,0,1.57,5.68.54,5.68,4.22,0,1.78-1.3,3.18-3.95,3.18A5.54,5.54,0,0,1,192.61,89.71Z"/><path class="cls-3" d="M157.21,162.67l-1.56-4.32H144.73l-1.62,4.32H137l9.83-25.45h6.81l9.78,25.45Zm-7-20-3.95,11h7.95Z"/><path class="cls-3" d="M165.1,150c0-7.83,5.9-13.13,13.52-13.13a11.58,11.58,0,0,1,10.64,6.21l-4.65,2.27a6.89,6.89,0,0,0-6-3.67c-4.6,0-8,3.57-8,8.32s3.35,8.32,8,8.32a6.9,6.9,0,0,0,6-3.67l4.65,2.27a11.69,11.69,0,0,1-10.65,6.27C171.05,163.1,165.1,157.75,165.1,150Z"/><path class="cls-3" d="M200.29,162.67V142h-7.46v-4.81H213.1V142h-7.41v20.65h-5.4Z"/><polygon class="cls-4" points="108.09 29.78 108.09 177.21 0 177.21 0 29.78 54.85 0 108.36 29.51 108.09 29.78"/><path class="cls-2" d="M17.08,73.77V68.85c12.16-9,15.67-12,15.67-15.67,0-2.59-2.38-3.89-4.81-3.89A10.65,10.65,0,0,0,20,52.69l-3.62-4.16a15,15,0,0,1,11.4-4.86c6.32,0,11.35,3.56,11.35,9.46,0,5.08-4.16,9.45-11.89,15.07h12.1v5.57Z"/><path class="cls-2" d="M42.75,69.88l3.51-4.38a10.63,10.63,0,0,0,7.89,3.24c3.51,0,5.51-2,5.51-4.37,0-2.65-1.94-4.38-5.35-4.38a8.52,8.52,0,0,0-6.21,2.38l-4.38-1.14v-17H64.1v5.46H50v7.24a9.47,9.47,0,0,1,6.54-2.49A9.29,9.29,0,0,1,66.1,64c0,6.33-4.71,10.27-11.89,10.27C49,74.31,45.23,72.64,42.75,69.88Z"/><path class="cls-2" d="M68,59c0-7.67,3.78-15.29,12.27-15.29S92.52,51.34,92.52,59,88.69,74.31,80.26,74.31,68,66.64,68,59Zm18.1,0c0-5.46-1.62-9.67-5.83-9.67s-5.9,4.21-5.9,9.67,1.63,9.73,5.9,9.73S86.09,64.47,86.09,59Z"/><path class="cls-2" d="M29.08,91.6V81.71h4.64A3.06,3.06,0,0,1,37,84.9a3.09,3.09,0,0,1-3.3,3.19H31.18V91.6Zm5.78-6.75A1.37,1.37,0,0,0,33.4,83.5H31.18v2.65H33.4A1.27,1.27,0,0,0,34.86,84.85Z"/><path class="cls-2" d="M37.83,86.63A5.19,5.19,0,1,1,43,91.77,5,5,0,0,1,37.83,86.63Zm8.16,0a3,3,0,0,0-3-3.24,3,3,0,0,0-3,3.24,3,3,0,0,0,3,3.25A3,3,0,0,0,46,86.63Z"/><path class="cls-2" d="M49.67,91.6V81.71h2.1V91.6Z"/><path class="cls-2" d="M60.53,91.6l-4.7-6.43V91.6H53.72V81.71h2.16l4.6,6.22V81.71h2.1V91.6Z"/><path class="cls-2" d="M66.8,91.6v-8H63.88V81.71h7.89v1.84H68.91v8Z"/><path class="cls-2" d="M72.36,90.2l1.14-1.62a4.45,4.45,0,0,0,3.13,1.35c1.14,0,1.73-.54,1.73-1.08,0-1.73-5.67-.54-5.67-4.27,0-1.62,1.4-3,3.73-3A5.42,5.42,0,0,1,80.26,83l-1.19,1.56a4.27,4.27,0,0,0-2.87-1.08c-.92,0-1.4.38-1.4,1,0,1.56,5.67.54,5.67,4.21,0,1.79-1.3,3.19-3.94,3.19A5.89,5.89,0,0,1,72.36,90.2Z"/><path class="cls-5" d="M19.29,159.05l2.92-4.11a11.07,11.07,0,0,0,8.11,3.41c3,0,4.43-1.35,4.43-2.81,0-4.49-14.65-1.41-14.65-11,0-4.22,3.68-7.73,9.68-7.73a14,14,0,0,1,9.89,3.57l-3,3.94a11,11,0,0,0-7.4-2.81c-2.33,0-3.62,1-3.62,2.54,0,4,14.59,1.35,14.59,10.81,0,4.65-3.3,8.16-10.16,8.16C25.13,163.05,21.62,161.43,19.29,159.05Z"/><path class="cls-5" d="M62.91,162.62l-1.57-4.33H50.42l-1.62,4.33H42.69l9.84-25.46h6.81l9.78,25.46Zm-7-20-3.95,11h7.94Z"/><path class="cls-5" d="M76.8,162.62V142H69.34v-4.75H89.6V142H82.2v20.65Z"/></svg>